<?xml version="1.0" encoding="UTF-8" standalone="no"?><!DOCTYPE svg PUBLIC "-//W3C//DTD SVG 1.1//EN" "http://www.w3.org/Graphics/SVG/1.1/DTD/svg11.dtd"><svg width="100%" height="100%" viewBox="0 0 24 24" version="1.1" xmlns="http://www.w3.org/2000/svg" xmlns:xlink="http://www.w3.org/1999/xlink" xml:space="preserve" xmlns:serif="http://www.serif.com/" style="fill-rule:evenodd;clip-rule:evenodd;stroke-linejoin:round;stroke-miterlimit:2;"><rect id="Complete" x="0" y="0" width="23.273" height="23.273" style="fill:none;"/><g><g><path d="M14.629,7.466c0.432,-0.417 1.118,-0.417 1.55,0c0.001,0.001 0.001,0.001 0.001,0.001c0.211,0.204 0.331,0.485 0.331,0.779c0,0.293 -0.12,0.574 -0.331,0.778c-1.739,1.68 -5.825,5.628 -7.536,7.282c-0.433,0.418 -1.118,0.418 -1.551,0c0,0 0,-0.001 -0.001,-0.001c-0.211,-0.204 -0.33,-0.485 -0.33,-0.778c0,-0.294 0.119,-0.575 0.33,-0.779c1.739,-1.68 5.826,-5.628 7.537,-7.282Z" style="fill:#4d4d4d;"/><path d="M8.644,7.466c-0.433,-0.417 -1.118,-0.417 -1.551,0c0,0.001 0,0.001 -0.001,0.001c-0.211,0.204 -0.33,0.485 -0.33,0.779c0,0.293 0.119,0.574 0.33,0.778c1.739,1.68 5.826,5.628 7.537,7.282c0.432,0.418 1.118,0.418 1.55,0c0.001,0 0.001,-0.001 0.001,-0.001c0.211,-0.204 0.331,-0.485 0.331,-0.778c0,-0.294 -0.12,-0.575 -0.331,-0.779c-1.739,-1.68 -5.825,-5.628 -7.536,-7.282Z" style="fill:#4d4d4d;"/></g></g></svg>