<?xml version="1.0" encoding="UTF-8" standalone="no"?><!DOCTYPE svg PUBLIC "-//W3C//DTD SVG 1.1//EN" "http://www.w3.org/Graphics/SVG/1.1/DTD/svg11.dtd"><svg width="100%" height="100%" viewBox="0 0 24 24" version="1.1" xmlns="http://www.w3.org/2000/svg" xmlns:xlink="http://www.w3.org/1999/xlink" xml:space="preserve" xmlns:serif="http://www.serif.com/" style="fill-rule:evenodd;clip-rule:evenodd;stroke-linejoin:round;stroke-miterlimit:2;"><rect id="Remember" x="0" y="0" width="23.273" height="23.273" style="fill:none;"/><g><circle cx="11.636" cy="16.376" r="1.729" style="fill:#4d4d4d;"/><path d="M11.636,14.648c0.954,0 1.729,0.774 1.729,1.728c0,0.954 -0.775,1.729 -1.729,1.729c-0.954,0 -1.728,-0.775 -1.728,-1.729c0,-0.954 0.774,-1.728 1.728,-1.728Zm0,3c-0.701,0 -1.271,-0.57 -1.271,-1.272c0,-0.701 0.57,-1.271 1.271,-1.271c0.702,0 1.272,0.57 1.272,1.271c0,0.702 -0.57,1.272 -1.272,1.272Z" style="fill:#4d4d4d;"/><path d="M11.636,4c1.387,0 2.514,0.712 2.514,1.588c0,0.877 -0.408,7.943 -2.514,7.943c-2.105,0 -2.513,-7.066 -2.513,-7.943c0,-0.876 1.126,-1.588 2.513,-1.588Z" style="fill:#4d4d4d;"/><path d="M11.636,4c1.387,0 2.514,0.712 2.514,1.588c0,0.877 -0.408,7.943 -2.514,7.943c-2.105,0 -2.513,-7.066 -2.513,-7.943c0,-0.876 1.126,-1.588 2.513,-1.588Z" style="fill:#4d4d4d;"/></g></svg>