<?xml version="1.0" encoding="UTF-8" standalone="no"?><!DOCTYPE svg PUBLIC "-//W3C//DTD SVG 1.1//EN" "http://www.w3.org/Graphics/SVG/1.1/DTD/svg11.dtd"><svg width="100%" height="100%" viewBox="0 0 24 24" version="1.1" xmlns="http://www.w3.org/2000/svg" xmlns:xlink="http://www.w3.org/1999/xlink" xml:space="preserve" xmlns:serif="http://www.serif.com/" style="fill-rule:evenodd;clip-rule:evenodd;stroke-linejoin:round;stroke-miterlimit:2;"><rect id="To-Do" x="0" y="0" width="23.273" height="23.273" style="fill:none;"/><circle cx="11.636" cy="11.636" r="2.545" style="fill:#4d4d4d;"/><path d="M11.636,9.091c1.405,0 2.546,1.14 2.546,2.545c0,1.405 -1.141,2.546 -2.546,2.546c-1.405,0 -2.545,-1.141 -2.545,-2.546c0,-1.405 1.14,-2.545 2.545,-2.545Zm0,3c-0.251,0 -0.454,-0.204 -0.454,-0.455c0,-0.251 0.203,-0.454 0.454,-0.454c0.251,0 0.455,0.203 0.455,0.454c0,0.251 -0.204,0.455 -0.455,0.455Z" style="fill:#4d4d4d;"/></svg>